# xmcd
#
# Track frame offsets: 
#        150
#        20073
#        37446
#        54294
#        73092
#        99390
#        116388
#        128899
#        147472
#        162370
#        183268
#        197041
#        218164
#        234037
#
# Disc length: 3361 seconds
#
# Revision: 0
# Processed by: cddbd v1.5.2PL0 Copyright (c) Steve Scherf et al.
# Submitted via: ExactAudioCopyFreeDBPlugin 1.0
#
DISCID=c90d1f0e
DTITLE=Various Artist - Ladies and Gentlemen CD4
DYEAR=2011
DGENRE=
TTITLE0=Nana Mouskouri - Only Love
TTITLE1=Elton John - Candle In The Wind
TTITLE2=Cat Stevens - Lady D'Arbanville
TTITLE3=Marianne Faithfull - The Ballad Of Lucy Jordan
TTITLE4=Rod Stewart - Maggie May
TTITLE5=Joe Cocker - Many Rivers To Cross
TTITLE6=Neil Sedaka - Laughter In The Rain
TTITLE7=Chris De Burgh - Missing You
TTITLE8=Lionel Richie - Truly
TTITLE9=Oleta Adams - Get Here
TTITLE10=Stevie Wonder - Blowin In The Wind
TTITLE11=Cher - Love And Understanding
TTITLE12=Caetano Veloso - Carioca
TTITLE13=Elton John - Your Song
EXTD=
EXTT0=
EXTT1=
EXTT2=
EXTT3=
EXTT4=
EXTT5=
EXTT6=
EXTT7=
EXTT8=
EXTT9=
EXTT10=
EXTT11=
EXTT12=
EXTT13=
PLAYORDER=
